<?xml version="1.0" standalone="no"?>
<!DOCTYPE svg PUBLIC "-//W3C//DTD SVG 20010904//EN"
 "http://www.w3.org/TR/2001/REC-SVG-20010904/DTD/svg10.dtd">
<svg version="1.0" xmlns="http://www.w3.org/2000/svg"
 width="39.000000pt" height="40.000000pt" viewBox="0 0 39.000000 40.000000"
 preserveAspectRatio="xMidYMid meet">

<g transform="translate(0.000000,40.000000) scale(0.100000,-0.100000)"
fill="#000000" stroke="none">
<path d="M67 293 c-4 -3 -2 -12 4 -20 17 -19 245 -19 252 1 3 8 3 17 0 20 -9
8 -248 8 -256 -1z"/>
<path d="M71 217 c-6 -8 -8 -17 -4 -20 8 -9 248 -9 256 0 4 3 2 12 -4 20 -16
19 -232 19 -248 0z"/>
<path d="M67 136 c-3 -8 -3 -17 0 -20 4 -3 62 -6 130 -6 116 0 123 1 123 20 0
19 -7 20 -124 20 -97 0 -125 -3 -129 -14z"/>
</g>
</svg>
