<svg width="40" height="40" viewBox="0 0 40 40" fill="none" xmlns="http://www.w3.org/2000/svg">
<rect width="40" height="40" rx="8" fill="#363636"/>
<g clip-path="url(#clip0_1_142)">
<path fill-rule="evenodd" clip-rule="evenodd" d="M27.9422 27.0578L24.0305 23.1469C26.3858 20.3192 26.1004 16.1391 23.3826 13.6578C20.6649 11.1765 16.4761 11.2717 13.8739 13.8739C11.2717 16.4761 11.1765 20.6649 13.6578 23.3826C16.1391 26.1004 20.3192 26.3858 23.1469 24.0305L27.0578 27.9422C27.302 28.1864 27.698 28.1864 27.9422 27.9422C28.1864 27.698 28.1864 27.302 27.9422 27.0578ZM13.125 18.75C13.125 15.6434 15.6434 13.125 18.75 13.125C21.8566 13.125 24.375 15.6434 24.375 18.75C24.375 21.8566 21.8566 24.375 18.75 24.375C15.6448 24.3716 13.1284 21.8552 13.125 18.75Z" fill="white"/>
</g>
<defs>
<clipPath id="clip0_1_142">
<rect width="20" height="20" fill="white" transform="translate(10 10)"/>
</clipPath>
</defs>
</svg>
